<svg width="280" height="142" viewBox="0 0 280 142" fill="none" xmlns="http://www.w3.org/2000/svg" xmlns:xlink="http://www.w3.org/1999/xlink">
<g clip-path="url(#clip0_2_4)">
<path d="M57.0641 81.4644V66.7863H55.3111C51.4541 79.9338 42.9513 87.5879 32.3448 87.5879C17.9696 87.5879 9.64216 76.3362 9.64216 55.8952C9.64216 35.9045 18.2325 26.4144 32.3448 26.4144C41.8119 26.4144 49.438 34.068 53.5582 47.2156H55.3111V32.4472C50.6651 27.1348 41.2859 23.2628 33.0467 23.2628C13.8494 23.2628 0 35.7244 0 55.8952C0 76.5163 13.8494 90.7394 33.0467 90.7394C44.266 90.7394 52.1552 86.8671 57.0641 81.4644ZM97.8241 50.5684H80.9939V31.6582C80.9939 29.407 82.8351 26.6158 85.903 26.5252H95.1945C110.184 26.5252 111.587 37.6012 111.936 42.2839H113.69V23.3737L65.9176 23.3508L65.8298 24.1611C67.5829 25.5118 71.3517 27.6733 71.3517 30.9148V84.2466C71.3517 87.4879 67.5829 88.8389 65.8298 90.1896L65.9176 91L116.67 90.91V70.1989H114.917C114.479 74.2513 113.427 87.7585 95.7205 87.7585H85.9906C83.7989 87.7585 81.0822 85.8675 80.9939 82.7156V53.7198H97.8241C100.98 53.7198 103.083 57.5924 104.398 59.3931L105.187 59.303C104.749 57.772 104.486 54.7103 104.398 52.0992C104.486 49.5778 104.749 46.5164 105.187 44.9856L104.398 44.8956C103.083 46.696 100.98 50.5684 97.8241 50.5684ZM91.8632 17.4303L102.383 0.951782L107.729 6.44442L93.0909 18.6914L91.8632 17.4303Z" fill="#45B3D2"/>
<path d="M212.022 37.7678C212.022 30.9657 216.633 26.488 223.757 26.488C234.235 26.488 240.773 39.2316 242.617 46.3784H244.293V32.2571C238.845 26.7464 231.468 23.4739 224.428 23.4739C210.765 23.4739 202.802 29.5014 202.802 39.7484C202.802 57.4864 235.911 62.3082 235.911 76.0859C235.911 83.2324 231.134 87.7964 224.26 87.7964C215.795 87.7964 206.323 80.4772 202.802 67.9052H201.126V81.941C205.82 87.538 214.034 90.81 223.422 90.81C237.169 90.81 245.131 85.1269 245.131 75.3107C245.131 54.9896 212.022 50.9419 212.022 37.7678Z" fill="#45B3D2"/>
<path fill-rule="evenodd" clip-rule="evenodd" d="M158.59 52.6301C157.096 52.6216 154.598 51.7037 153.843 49.175C153.531 48.2798 152.718 48.119 149.728 46.324L135.325 37.7965C131.356 35.7394 131.199 33.2508 131.308 28.148L154.642 41.9594C158.613 44.3142 158.24 45.5536 158.59 46.9949V52.6301Z" fill="#45B3D2"/>
<path fill-rule="evenodd" clip-rule="evenodd" d="M158.671 55.3761L161.69 58.4555C162.666 61.41 160.404 63.4531 158.706 66.6416L158.671 66.5841V55.3761Z" fill="#45B3D2"/>
<path fill-rule="evenodd" clip-rule="evenodd" d="M158.522 52.6302C160.016 52.6217 162.513 51.7037 163.268 49.1751C163.58 48.2799 164.394 48.119 167.383 46.3241L181.727 37.777C185.696 35.7191 185.833 33.2103 185.724 28.108L162.469 41.9595C158.498 44.3142 158.872 45.5536 158.522 46.9949V52.6302Z" fill="#45B3D2"/>
<path fill-rule="evenodd" clip-rule="evenodd" d="M158.635 43.2898C158.834 42.7447 160.177 41.5796 162.28 40.4147C165.596 38.3023 170.406 35.6064 173.419 33.7261C169.475 29.5069 164.203 27.3943 158.634 27.5221L158.635 43.2898Z" fill="#45B3D2"/>
<path fill-rule="evenodd" clip-rule="evenodd" d="M142.35 48.7761C142.35 52.4203 145.226 55.3747 148.774 55.3747C150.905 55.3747 152.792 54.3091 153.961 52.6682L154.044 52.7173C152.571 54.9007 150.115 56.3312 147.334 56.3312C142.828 56.3312 139.175 52.5787 139.175 47.9502C139.175 46.6668 139.456 45.4504 139.958 44.3628L142.898 46.1067C142.546 46.9229 142.35 47.8261 142.35 48.7761Z" fill="#45B3D2"/>
<path fill-rule="evenodd" clip-rule="evenodd" d="M158.746 55.3761L155.727 58.4555C154.751 61.41 157.014 63.4531 158.711 66.6416L158.746 66.5841V55.3761Z" fill="#45B3D2"/>
<path fill-rule="evenodd" clip-rule="evenodd" d="M158.691 43.2934C158.493 42.7479 157.15 41.5828 155.047 40.4184C151.731 38.306 146.92 35.6093 143.907 33.7298C147.852 29.5105 153.123 27.3979 158.692 27.5257L158.691 43.2934Z" fill="#45B3D2"/>
<path fill-rule="evenodd" clip-rule="evenodd" d="M144.672 47.193L152.158 51.6323C151.377 52.2152 150.417 52.5588 149.378 52.5588C146.765 52.5588 144.646 50.3829 144.646 47.698C144.646 47.5276 144.655 47.3593 144.672 47.193ZM148.796 50.0893C149.206 50.0893 149.539 50.432 149.539 50.8534C149.539 51.2754 149.206 51.6173 148.796 51.6173C148.385 51.6173 148.052 51.2754 148.052 50.8534C148.052 50.432 148.385 50.0893 148.796 50.0893ZM147.652 49.4852C147.872 49.4852 148.052 49.669 148.052 49.8964C148.052 50.1233 147.872 50.3071 147.652 50.3071C147.431 50.3071 147.251 50.1233 147.251 49.8964C147.251 49.669 147.431 49.4852 147.652 49.4852Z" fill="#45B3D2"/>
<path fill-rule="evenodd" clip-rule="evenodd" d="M149.436 52.9298C146.624 52.9298 144.344 50.5875 144.344 47.698C144.344 47.4584 144.359 47.2222 144.39 46.9911L143.771 46.6244C143.709 46.9724 143.677 47.3316 143.677 47.698C143.677 50.9658 146.255 53.6149 149.436 53.6149C150.746 53.6149 151.954 53.1652 152.922 52.408C153.008 52.341 153.091 52.2717 153.173 52.2002L152.555 51.8342C152.381 51.9728 152.198 52.1001 152.007 52.2147C151.253 52.6692 150.374 52.9298 149.436 52.9298Z" fill="#45B3D2"/>
<path fill-rule="evenodd" clip-rule="evenodd" d="M164.022 52.2002C165.028 53.0826 166.333 53.6149 167.759 53.6149C170.939 53.6149 173.518 50.9658 173.518 47.698C173.518 47.3316 173.485 46.9724 173.423 46.6244L172.805 46.9911C172.836 47.2222 172.852 47.4584 172.852 47.698C172.852 50.5875 170.571 52.9298 167.759 52.9298C166.584 52.9298 165.501 52.5211 164.64 51.8342L164.022 52.2002Z" fill="#45B3D2"/>
<path fill-rule="evenodd" clip-rule="evenodd" d="M174.844 48.7761C174.844 52.4203 171.968 55.3747 168.421 55.3747C166.29 55.3747 164.402 54.3091 163.233 52.6682L163.151 52.7173C164.623 54.9007 167.079 56.3312 169.861 56.3312C174.367 56.3312 178.019 52.5787 178.019 47.9502C178.019 46.6668 177.738 45.4504 177.236 44.3628L174.297 46.1067C174.649 46.9229 174.844 47.8261 174.844 48.7761Z" fill="#45B3D2"/>
<path fill-rule="evenodd" clip-rule="evenodd" d="M172.465 47.193L164.98 51.6323C165.759 52.2152 166.72 52.5588 167.759 52.5588C170.372 52.5588 172.49 50.3829 172.49 47.698C172.49 47.5276 172.482 47.3593 172.465 47.193ZM168.341 50.0893C167.931 50.0893 167.598 50.432 167.598 50.8534C167.598 51.2754 167.931 51.6173 168.341 51.6173C168.752 51.6173 169.085 51.2754 169.085 50.8534C169.085 50.432 168.752 50.0893 168.341 50.0893ZM169.485 49.4852C169.264 49.4852 169.085 49.669 169.085 49.8964C169.085 50.1233 169.264 50.3071 169.485 50.3071C169.707 50.3071 169.885 50.1233 169.885 49.8964C169.885 49.669 169.707 49.4852 169.485 49.4852Z" fill="#45B3D2"/>
<path d="M179.139 43.3377L185.779 39.1702C188.497 44.1977 190.016 50.1896 190.016 56.7962C190.016 76.5775 176.983 90.9174 158.988 90.9174C140.573 90.9174 127.287 76.5775 127.287 56.7962C127.287 50.2034 128.521 44.0283 131.592 39.201L138.185 43.4495C137.1 47.3161 136.537 51.7852 136.537 56.7962C136.537 76.4049 144.778 87.8938 158.988 87.8938C172.779 87.8938 180.767 76.4049 180.767 56.7962C180.767 51.7367 180.21 47.2303 179.139 43.3377ZM174.202 33.2943L178.828 30.4936C173.564 25.9769 166.736 23.3667 158.988 23.3667C151.061 23.3667 143.855 25.7004 138.709 30.4908L143.32 33.2791C147.114 28.7949 152.412 26.3899 158.988 26.3899C165.377 26.3899 170.521 28.8002 174.202 33.2943Z" fill="#45B3D2"/>
</g>
<path d="M45.1906 114.75C45.1906 115.76 45.0083 116.719 44.6438 117.625C44.2896 118.521 43.7948 119.286 43.1594 119.922C42.3573 120.714 41.4146 121.312 40.3313 121.719C39.2479 122.125 37.8781 122.328 36.2219 122.328H33.5969V131H30.5031V107.734H36.3469C37.7219 107.734 38.8938 107.849 39.8625 108.078C40.8313 108.307 41.6854 108.677 42.425 109.188C43.2896 109.781 43.9667 110.536 44.4563 111.453C44.9458 112.359 45.1906 113.458 45.1906 114.75ZM41.9719 114.828C41.9719 114.026 41.8313 113.328 41.55 112.734C41.2792 112.141 40.8625 111.656 40.3 111.281C39.8104 110.958 39.2375 110.729 38.5813 110.594C37.9354 110.458 37.1281 110.391 36.1594 110.391H33.5969V119.688H35.7063C36.9563 119.688 37.9667 119.589 38.7375 119.391C39.5083 119.182 40.149 118.818 40.6594 118.297C41.1177 117.828 41.451 117.318 41.6594 116.766C41.8677 116.214 41.9719 115.568 41.9719 114.828ZM63.7738 131L71.6175 107.734H75.43L83.2738 131H80.0081L77.8988 124.5H69.0081L66.8988 131H63.7738ZM77.0394 121.859L73.4456 110.891L69.8675 121.859H77.0394ZM112.482 131H103.451V128.625H106.419V110.109H103.451V107.734H112.482V110.109H109.513V128.625H112.482V131ZM151.815 131H148.346L138.065 110.938V131H135.174V107.734H139.565L148.924 126.156V107.734H151.815V131ZM175.429 131V107.734H189.976V110.484H178.523V116.859H189.195V119.609H178.523V128.25H189.976V131H175.429ZM225.762 131H212.278V107.734H215.372V128.25H225.762V131Z" fill="#45B3D2"/>
<rect x="277" y="23" width="3" height="115" fill="#45B3D2"/>
<defs>
<clipPath id="clip0_2_4">
<rect width="245.131" height="90.0482" fill="white" transform="translate(0 0.951782)"/>
</clipPath>
</defs>
</svg>
